<svg xmlns="http://www.w3.org/2000/svg" version="1.1" id="heroFavicon" viewBox="0 0 512 512" width="512" height="512"><defs>
    <style>
      .st0 {
        fill: #9099a0;
      }

      .st1 {
        fill: #969ca0;
      }

      .st2 {
        fill: #00856f;
      }

      .st3, .st4, .st5 {
        stroke: #000;
      }

      .st3, .st5 {
        stroke-miterlimit: 10;
        stroke-width: 2px;
      }

      .st6 {
        fill: #fce1bc;
      }

      .st7 {
        fill: #1a0d0d;
      }

      .st4 {
        fill: #111;
        stroke-miterlimit: 8;
        stroke-width: 14px;
      }

      .st5 {
        fill: #20284a;
      }

      .st8 {
        fill: #1e524a;
      }

      .st9 {
        fill: #ba3d3b;
      }

      .st10 {
        fill: #939a9f;
      }
    </style>
  </defs><g id="rain">
    <polygon class="st4" points="109.04 204.58 134.48 169.94 109.04 204.58 109.04 204.58"></polygon>
    <polygon class="st4" points="402 193.86 427.44 159.22 402 193.86 402 193.86"></polygon>
    <polygon class="st4" points="329.52 328.34 354.96 293.7 329.52 328.34 329.52 328.34"></polygon>
    <polygon class="st4" points="435.12 256.1 460.56 221.46 435.12 256.1 435.12 256.1"></polygon>
    <polygon class="st4" points="404.56 332.1 430.08 297.46 404.56 332.1 404.56 332.1"></polygon>
    <polygon class="st4" points="336.16 65.78 361.68 31.14 336.16 65.78 336.16 65.78"></polygon>
    <polygon class="st4" points="386.96 125.86 412.4 91.22 386.96 125.86 386.96 125.86"></polygon>
    <polygon class="st4" points="83.6 116.18 109.04 81.54 83.6 116.18 83.6 116.18"></polygon>
    <polygon class="st4" points="242.64 58.34 268.08 23.7 242.64 58.34 242.64 58.34"></polygon>
    <polygon class="st4" points="162.8 72.02 188.24 37.38 162.8 72.02 162.8 72.02"></polygon>
  </g><path id="outline" class="st3" d="M325.2,118.42c5.04-8.24,8.24-23.44-6.64-24.4-9.92-.64-12.64,11.2-19.04,10.48-1.6-.16-18-8.16-21.92-9.44-20.88-6.96-44.08-10.4-66.4-9.44v-.08c-38.24,1.76-76.32,17.84-103.6,42.72-5.92,9.52,8.8,8.24,14.16,9.68,1.6.4,6.64,2.4,8.08,3.12,4.8,2.56,12.08,12.64,14.4,13.12,2.88.64,7.76-.24,11.52.56,6.4,1.36,16.8,6.16,21.92,10,8.24,6.16,8.64,14.72,21.92,12.08.88,9.52-5.2,18.72.88,27.52,4.48,6.48,14.08,7.36,20.8,11.04l-22.56,33.04c-9.6,1.12-22.4,11.2-21.92,20.48.08,1.36,2.32,5.84,2.32,6.32-.16.96-11.68,13.68-12.96,16-8.96-.16-3.92-5.6-3.76-8.64.24-5.76.08-12.08-6.08-15.44-23.12-12.8-35.92,29.28-10.96,44.56,19.68,12,44.8,3.2,52-16.8l8.96,4.96-8.08,82.8c1.84,6.4,17.2,1.68,18.48,4.24-.24,15.92.32,31.76,0,47.68,0,.16-1.76,1.6-1.76,2.08-.16,6.24,3.2,12.88,1.2,19.36-2,6.56-12.72,5.44-18.72,9.2-4.15,2.55-6.23,6.86-7.51,11v7.74h108.32v-12.14h.06c0-9.05,1.35-29.83.33-34.04-.72-2.88-4.64-4.24-4.64-4.24l.56-47.2c11.44-2.16,21.12,5.2,20.8-9.44-2-43.12-8.8-93.84-22.48-135.2,8.64-1.52,16.4,5.04,19.92-5.52.8-.24,11.76,9.28,12.96,10.72,2.24,2.56,6.64,11.36,8.4,12.32,2.48,1.28,8.96,1.12,12.16,2.08,4.72,1.44,11.92,6.24,15.28,9.68,3.76,3.76,7.36,14.16,14.16,11.28,6.64-2.8,15.04-35.52,15.84-42.72,5.36-48.88-24.24-93.2-66.4-121.12ZM182.64,298.74c-15.2,17.2-44.96,4.64-39.28-17.28.32-1.28,2.4-5.76,3.76-6.08v.08c7.12-1.68,2.56,6.56,2.56,7.6-.4,7.2.88,14.88,9.52,17.52,14.32,4.4,18.96-7.52,26-15.76.64,1.12,3.76,3.68,3.76,4.48,0,.56-5.68,8.72-6.32,9.44ZM316.8,105.62c.24,0,1.04,1.04,1.44,1.28-.64,1.36-.96,5.76-3.76,5.52-5.84-.56,1.76-6.8,2.32-6.8ZM311.04,123.38c15.84,29.12-.64,65.12-16.16,91.76-10.24-11.68-24.48-19.12-39.52-24.4l55.68-67.36ZM145.92,140.74c-5.68-5.84-12.96-9.84-21.04-12.32,25.04-20.72,61.52-32.56,94.4-32.8l-.08.08c.08,0,1.12.8.56,1.04-29.44,5.44-53.6,24.88-73.84,44ZM191.6,162.66c-9.2-8.56-20.88-14.88-33.76-17.52,22.08-23.2,56.64-43.68,91.44-43.76v-.08c11.68,0,25.04,2.64,35.52,7.12-39.28,2.96-69.92,27.36-93.2,54.24ZM289.08,117.62c3.59,0,7.25.96,10.92.56l.32,1.28-55.68,67.36c-11.44-10.32-25.84-17.44-41.84-19.68,18.63-23.67,52.61-49.18,86.28-49.52ZM209.2,198.58c-1.76-3.36,1.52-14.96,2-19.12,5.76,1.44,27.28,11.2,25.12,17.52-.24.64-7.68,10.24-8.4,10.24-1.04.16-18.24-7.68-18.72-8.64ZM245.84,200.42c2.24.56,6.48-.4,5.52,2.4-2.96,5.44-34.4,48.72-40.72,54.24l-3.76-2.4,38.96-54.24ZM223.28,265.94c-6.8-1.36.56-7.2,1.76-9.92,1.28,1.84,2.16,10.72-1.76,9.92ZM192.16,273.3c-7.04-2.64-.96-12.32,2.88-13.12,1.92-.4,4.96,2.64,4.88,3.92,0,.56-6.56,8.24-7.76,9.2ZM242.08,464.9c-.4,1.84-6.32,7.04-5.2,10.48l-34.88.8c1.28-4.8,10.08-4.56,14.4-6.32,12.96-5.28,11.12-14.64,10.96-25.68l14.16.24c-1.28,5.36,1.44,16,.56,20.48ZM228.48,386.02h.08c.72-.32,10.16-.24,10.64.8l-.32,46.88-11.28-.24c.88-5.44-1.52-46.48.88-47.44ZM287.6,475.86l-39.52.24c-4.64-2.24,14.72-6.4,15.6-6.8,12.16-5.2,8.8-15.04,9.84-25.12l14.08.24v31.44ZM261.12,386.9c.32,17.44-.4,34.96,0,52.4.24,7.92,6.64,22.48-8.64,22-2.08-2.8,3.44-24.24-2.88-27.28l.88-48v.08l10.64.8ZM272,433.46l.32-47.43,11.2.79-.88,46.88-10.64-.24ZM295.2,295.14c4.08,26.48,5.28,54.32,8.4,80.96l-93.84-.8,7.76-72.56c36.56,5.6,47.6-28.72,44.16-55.28-.64-5.12-1.6-14.72-9.52-12.88-6.56,1.44-1.68,10.64-1.44,14.4,1.92,35.04-14.32,58.96-52.56,34.08l11.84-13.92c14.4,13.68,28.72,7.76,27.44-11.28-.16-2.88-3.68-12.16-3.44-13.6.48-2.64,14.61-17.81,16.47-21.75,11.42,1.61,23.38,5.77,29.69,14.95,7.04,10.32,13.04,44.48,15.04,57.68ZM287.36,229.22c-1.36-.56-7.04-7.04-10.4-8.88-5.84-3.28-13.2-4.56-19.6-6.8-.56-.56,5.28-8.32,5.76-8.4,1.52-.32,13.28,7.52,15.04,8.88,8.32,6.56,11.68,15.68,23.36,17.04-3.12-.24-11.84-.8-14.16-1.84ZM337.6,243.94c-8.72-10.32-19.76-18.48-33.2-23.28,16-26.72,28.08-56.96,22.8-87.84,32.64,29.44,29.92,75.92,10.4,111.12ZM372.24,266.98c-6.64-8-15.36-13.2-25.68-16.48,14.4-25.92,20.72-56,12.96-84.64v-.08c22.56,28.8,28.72,68.56,12.72,101.2Z"></path><path class="st1" d="M317.2,105.14s1.04,1.12,1.44,1.28c-.64,1.36-.96,5.76-3.76,5.52-5.84-.56,1.76-6.88,2.32-6.8h0Z"></path><path class="st10" d="M246.24,200.02c2.24.56,6.4-.48,5.52,2.4-.96,2.88-33.04,46.08-36.96,50.32-1.2,1.36-2.4,2.72-3.76,3.92l-3.76-2.4,38.96-54.24h0Z"></path><path class="st7" d="M263.52,204.74c1.52-.32,13.2,7.52,15.04,8.88,8.32,6.56,11.76,15.68,23.36,17.04-3.04-.24-11.84-.8-14.16-1.84-1.36-.64-7.04-7.04-10.4-8.88-5.84-3.28-13.28-4.64-19.6-6.8-.56-.56,5.2-8.24,5.76-8.4h0Z"></path><g id="jacket">
    <path class="st2" d="M250.88,222.02c11.36,1.52,23.44,5.68,29.76,14.96,7.04,10.32,12.96,44.4,15.04,57.68,4.08,26.48,5.2,54.32,8.4,80.96l-93.84-.8,7.76-72.56c36.56,5.6,47.6-28.72,44.16-55.28-.64-5.12-1.6-14.64-9.52-12.88-6.56,1.52-1.68,10.64-1.44,14.4,2,35.04-14.32,58.96-52.56,34.08l11.84-13.92c14.4,13.68,28.64,7.76,27.44-11.28-.16-2.96-3.68-12.24-3.44-13.6.4-2.64,14.64-17.84,16.48-21.76h-.08ZM234.72,311.62c-10.24,2.32-2.32,24.08,1.44,29.6,3.28,4.8,16.4,14.96,22.8,14.4,4.48-.32,16.48-8.32,19.36-11.76,4.48-5.52,13.28-28,4.32-31.76-7.36-3.04-38.16,1.2-47.92-.56h0v.08Z"></path>
    <path class="st2" d="M225.44,255.54c1.36,1.84,2.16,10.72-1.76,9.92-6.8-1.36.56-7.2,1.76-9.92Z"></path>
  </g><g id="skin">
    <path class="st6" d="M211.6,179.06c5.76,1.44,27.28,11.2,25.12,17.52-.16.64-7.68,10.16-8.4,10.24-1.04.08-18.24-7.68-18.72-8.64-1.76-3.36,1.52-14.96,2-19.12h0Z"></path>
    <path class="st6" d="M195.44,259.78c1.92-.4,4.96,2.64,4.88,3.92,0,.56-6.56,8.16-7.76,9.2-7.04-2.56-.96-12.32,2.88-13.12h0Z"></path>
  </g><path class="st0" d="M147.52,274.98c7.12-1.68,2.64,6.56,2.56,7.6-.4,7.2.88,14.88,9.52,17.52,14.24,4.4,18.96-7.44,26-15.76.64,1.04,3.76,3.68,3.76,4.48,0,.56-5.68,8.64-6.32,9.44-15.2,17.12-44.96,4.56-39.28-17.28.32-1.2,2.4-5.68,3.76-6.08h0v.08Z"></path><path d="M234.72,311.62c9.76,1.76,40.56-2.56,47.92.56,8.96,3.68.16,26.24-4.32,31.76-2.8,3.52-14.8,11.44-19.36,11.76-6.48.48-19.52-9.6-22.8-14.4-3.76-5.52-11.68-27.28-1.44-29.6h0v-.08ZM255.44,321.62c-5.2.16-10.64.8-15.84.8,2.4,5.28,3.92,11.76,8.08,16.24,13.84,14.96,26.08-4,28.88-16.24-.4-.88-18.64-.88-21.04-.8h-.08Z"></path><path class="st8" d="M255.44,321.62c2.48,0,20.72-.08,21.04.8-2.8,12.24-14.96,31.2-28.88,16.24-4.16-4.48-5.68-10.96-8.08-16.24,5.28,0,10.64-.64,15.84-.8h.08Z"></path><g>
    <path class="st5" d="M228.88,385.62c.8-.32,10.16-.24,10.64.8l-.32,46.88-11.28-.24c.88-5.44-1.52-46.48.88-47.44h.08Z"></path>
    <path class="st5" d="M271.76,385.62l11.28.8-.88,46.88-10.64-.24.32-47.44h-.08Z"></path>
  </g><g id="red">
    <path class="st9" d="M219.68,95.14s1.2.8.56,1.04c-29.52,5.44-53.6,24.88-73.84,44-5.68-5.84-12.96-9.84-21.04-12.32,19.52-15.6,44.88-26.96,70.72-30.64,3.52-.48,21.28-2.4,23.68-2.08h-.08Z"></path>
    <path class="st9" d="M249.68,100.9c11.6,0,24.96,2.56,35.52,7.12-39.28,2.96-69.92,27.36-93.2,54.24-9.2-8.64-20.88-14.96-33.76-17.52,22.08-23.2,56.72-43.68,91.44-43.76h0v-.08Z"></path>
    <path class="st9" d="M289.52,117.22c3.68,0,7.28.96,10.96.56l.32,1.28-55.68,67.36c-11.44-10.24-25.84-17.36-41.84-19.68,18.64-23.68,52.56-49.2,86.32-49.52h-.08Z"></path>
    <path class="st9" d="M311.44,122.98c15.76,29.04-.64,65.12-16.16,91.76-10.24-11.6-24.48-19.12-39.52-24.4l55.68-67.36h0Z"></path>
    <path class="st9" d="M327.6,132.42c32.64,29.52,29.92,75.92,10.4,111.12-8.64-10.32-19.76-18.56-33.2-23.28,16-26.64,28.08-56.88,22.8-87.84h0Z"></path>
    <path class="st9" d="M359.92,165.46c22.56,28.72,28.64,68.48,12.72,101.12-6.56-8-15.36-13.2-25.68-16.48,14.4-25.92,20.72-56.08,12.96-84.64h0Z"></path>
    <path class="st9" d="M227.76,443.78l14.16.24c-1.28,5.36,1.44,15.92.56,20.48-.32,1.84-6.32,7.04-5.2,10.48l-34.88.8c1.36-4.8,10.08-4.48,14.4-6.32,12.96-5.28,11.12-14.64,10.96-25.68h0Z"></path>
    <path class="st9" d="M273.92,443.78l14.16.24v31.44l-39.52.24c-4.64-2.24,14.64-6.48,15.6-6.8,12.16-5.2,8.8-15.12,9.84-25.12h-.08Z"></path>
  </g><g id="shadowRight">
    <rect x="349.17" y="484.97" width="36.32" height="14" rx="4.56" ry="4.56"></rect>
    <rect x="397.89" y="484.65" width="36" height="14" rx="4.48" ry="4.48"></rect>
  </g><path id="shadowMain" d="M79.78,484.68h254.21c2.56,0,4.57,2.08,4.57,4.57v4.89c0,2.48-2,4.49-4.49,4.49H79.78c-2.56,0-4.57-2.08-4.57-4.57v-4.81c0-2.56,2.08-4.57,4.57-4.57Z"></path></svg>