<?xml version="1.0" encoding="UTF-8"?>
<svg id="heroFavicon" xmlns="http://www.w3.org/2000/svg" version="1.1" viewBox="0 0 512 512">
  <!-- Generator: Adobe Illustrator 30.2.1, SVG Export Plug-In . SVG Version: 2.1.1 Build 1)  -->
  <defs>
    <style>
      .st0 {
        fill: #9099a0;
      }

      .st1 {
        fill: #969ca0;
      }

      .st2 {
        fill: #00856f;
      }

      .st3, .st4, .st5 {
        stroke: #000;
      }

      .st3, .st5 {
        stroke-miterlimit: 10;
        stroke-width: 2px;
      }

      .st6 {
        fill: #fce1bc;
      }

      .st7 {
        fill: #1a0d0d;
      }

      .st4 {
        fill: #111;
        stroke-miterlimit: 8;
        stroke-width: 14px;
      }

      .st5 {
        fill: #20284a;
      }

      .st8 {
        fill: #1e524a;
      }

      .st9 {
        fill: #ba3d3b;
      }

      .st10 {
        fill: #939a9f;
      }
    </style>
  </defs>
  <g id="rain">
    <polygon class="st4" points="145.3 211.7 165.16 184.66 145.3 211.7 145.3 211.7"/>
    <polygon class="st4" points="373.98 203.33 393.83 176.29 373.98 203.33 373.98 203.33"/>
    <polygon class="st4" points="317.4 308.3 337.26 281.26 317.4 308.3 317.4 308.3"/>
    <polygon class="st4" points="399.83 251.91 419.69 224.88 399.83 251.91 399.83 251.91"/>
    <polygon class="st4" points="375.97 311.24 395.89 284.2 375.97 311.24 375.97 311.24"/>
    <polygon class="st4" points="322.58 103.36 342.5 76.32 322.58 103.36 322.58 103.36"/>
    <polygon class="st4" points="362.24 150.25 382.09 123.21 362.24 150.25 362.24 150.25"/>
    <polygon class="st4" points="125.44 142.7 145.3 115.66 125.44 142.7 125.44 142.7"/>
    <polygon class="st4" points="249.59 97.55 269.44 70.51 249.59 97.55 249.59 97.55"/>
    <polygon class="st4" points="187.27 108.23 207.12 81.19 187.27 108.23 187.27 108.23"/>
  </g>
  <path id="outline" class="st3" d="M314.03,144.45c3.93-6.43,6.43-18.3-5.18-19.05-7.74-.5-9.87,8.74-14.86,8.18-1.25-.12-14.05-6.37-17.11-7.37-16.3-5.43-34.41-8.12-51.83-7.37v-.06c-29.85,1.37-59.57,13.93-80.87,33.35-4.62,7.43,6.87,6.43,11.05,7.56,1.25.31,5.18,1.87,6.31,2.44,3.75,2,9.43,9.87,11.24,10.24,2.25.5,6.06-.19,8.99.44,5,1.06,13.11,4.81,17.11,7.81,6.43,4.81,6.74,11.49,17.11,9.43.69,7.43-4.06,14.61.69,21.48,3.5,5.06,10.99,5.74,16.24,8.62l-17.61,25.79c-7.49.87-17.48,8.74-17.11,15.99.06,1.06,1.81,4.56,1.81,4.93-.12.75-9.12,10.68-10.12,12.49-6.99-.12-3.06-4.37-2.93-6.74.19-4.5.06-9.43-4.75-12.05-18.05-9.99-28.04,22.85-8.55,34.78,15.36,9.37,34.97,2.5,40.59-13.11l6.99,3.87-6.31,64.63c1.44,5,13.43,1.31,14.42,3.31-.19,12.43.25,24.79,0,37.22,0,.12-1.37,1.25-1.37,1.62-.12,4.87,2.5,10.05.94,15.11-1.56,5.12-9.93,4.25-14.61,7.18-3.24,1.99-4.86,5.35-5.86,8.59v6.04h84.55v-9.48h.05c0-7.06,1.05-23.28.26-26.57-.56-2.25-3.62-3.31-3.62-3.31l.44-36.84c8.93-1.69,16.49,4.06,16.24-7.37-1.56-33.66-6.87-73.25-17.55-105.53,6.74-1.19,12.8,3.93,15.55-4.31.62-.19,9.18,7.24,10.12,8.37,1.75,2,5.18,8.87,6.56,9.62,1.94,1,6.99.87,9.49,1.62,3.68,1.12,9.3,4.87,11.93,7.56,2.93,2.93,5.74,11.05,11.05,8.8,5.18-2.19,11.74-27.73,12.36-33.35,4.18-38.15-18.92-72.75-51.83-94.54h0ZM202.75,285.2c-11.86,13.43-35.09,3.62-30.66-13.49.25-1,1.87-4.5,2.93-4.75v.06c5.56-1.31,2,5.12,2,5.93-.31,5.62.69,11.61,7.43,13.68,11.18,3.43,14.8-5.87,20.29-12.3.5.87,2.93,2.87,2.93,3.5,0,.44-4.43,6.81-4.93,7.37h0ZM307.47,134.45c.19,0,.81.81,1.12,1-.5,1.06-.75,4.5-2.93,4.31-4.56-.44,1.37-5.31,1.81-5.31ZM302.98,148.32c12.36,22.73-.5,50.83-12.61,71.62-7.99-9.12-19.11-14.92-30.85-19.05,0,0,43.46-52.58,43.46-52.58ZM174.09,161.87c-4.43-4.56-10.12-7.68-16.42-9.62,19.55-16.17,48.02-25.42,73.69-25.6l-.06.06c.06,0,.87.62.44.81-22.98,4.25-41.84,19.42-57.64,34.34h0ZM209.75,178.98c-7.18-6.68-16.3-11.61-26.35-13.68,17.23-18.11,44.21-34.09,71.37-34.16v-.06c9.12,0,19.55,2.06,27.73,5.56-30.66,2.31-54.58,21.36-72.75,42.34h0ZM285.84,143.82c2.8,0,5.66.75,8.52.44l.25,1-43.46,52.58c-8.93-8.06-20.17-13.61-32.66-15.36,14.54-18.48,41.07-38.39,67.35-38.65h0ZM223.48,207.02c-1.37-2.62,1.19-11.68,1.56-14.92,4.5,1.12,21.29,8.74,19.61,13.68-.19.5-5.99,7.99-6.56,7.99-.81.12-14.24-5.99-14.61-6.74h0ZM252.08,208.45c1.75.44,5.06-.31,4.31,1.87-2.31,4.25-26.85,38.03-31.78,42.34l-2.93-1.87,30.41-42.34ZM234.47,259.59c-5.31-1.06.44-5.62,1.37-7.74,1,1.44,1.69,8.37-1.37,7.74ZM210.18,265.34c-5.5-2.06-.75-9.62,2.25-10.24,1.5-.31,3.87,2.06,3.81,3.06,0,.44-5.12,6.43-6.06,7.18h0ZM249.15,414.9c-.31,1.44-4.93,5.5-4.06,8.18l-27.23.62c1-3.75,7.87-3.56,11.24-4.93,10.12-4.12,8.68-11.43,8.55-20.04l11.05.19c-1,4.18,1.12,12.49.44,15.99ZM238.53,353.32h.06c.56-.25,7.93-.19,8.31.62l-.25,36.59-8.8-.19c.69-4.25-1.19-36.28.69-37.03ZM284.68,423.45l-30.85.19c-3.62-1.75,11.49-5,12.18-5.31,9.49-4.06,6.87-11.74,7.68-19.61l10.99.19v24.54h0ZM264.01,354.01c.25,13.61-.31,27.29,0,40.9.19,6.18,5.18,17.55-6.74,17.17-1.62-2.19,2.69-18.92-2.25-21.29l.69-37.47v.06l8.31.62h0ZM272.5,390.35l.25-37.02,8.74.62-.69,36.59-8.31-.19h0ZM290.61,282.39c3.18,20.67,4.12,42.4,6.56,63.19l-73.25-.62,6.06-56.64c28.54,4.37,37.15-22.42,34.47-43.15-.5-4-1.25-11.49-7.43-10.05-5.12,1.12-1.31,8.31-1.12,11.24,1.5,27.35-11.18,46.02-41.03,26.6l9.24-10.87c11.24,10.68,22.42,6.06,21.42-8.8-.12-2.25-2.87-9.49-2.69-10.62.37-2.06,11.4-13.9,12.86-16.98,8.91,1.26,18.25,4.5,23.17,11.67,5.5,8.06,10.18,34.72,11.74,45.02h0ZM284.49,230.93c-1.06-.44-5.5-5.5-8.12-6.93-4.56-2.56-10.3-3.56-15.3-5.31-.44-.44,4.12-6.49,4.5-6.56,1.19-.25,10.37,5.87,11.74,6.93,6.49,5.12,9.12,12.24,18.23,13.3-2.44-.19-9.24-.62-11.05-1.44h0ZM323.71,242.42c-6.81-8.06-15.42-14.42-25.91-18.17,12.49-20.86,21.92-44.46,17.8-68.56,25.48,22.98,23.35,59.26,8.12,86.74h0ZM350.75,260.41c-5.18-6.24-11.99-10.3-20.04-12.86,11.24-20.23,16.17-43.71,10.12-66.07v-.06c17.61,22.48,22.42,53.52,9.93,78.99Z"/>
  <path class="st1" d="M307.78,134.08s.81.87,1.12,1c-.5,1.06-.75,4.5-2.93,4.31-4.56-.44,1.37-5.37,1.81-5.31h0Z"/>
  <path class="st10" d="M252.4,208.14c1.75.44,5-.37,4.31,1.87-.75,2.25-25.79,35.97-28.85,39.28-.94,1.06-1.87,2.12-2.93,3.06l-2.93-1.87,30.41-42.34h0Z"/>
  <path class="st7" d="M265.88,211.82c1.19-.25,10.3,5.87,11.74,6.93,6.49,5.12,9.18,12.24,18.23,13.3-2.37-.19-9.24-.62-11.05-1.44-1.06-.5-5.5-5.5-8.12-6.93-4.56-2.56-10.37-3.62-15.3-5.31-.44-.44,4.06-6.43,4.5-6.56h0Z"/>
  <g id="jacket">
    <path class="st2" d="M256.02,225.31c8.87,1.19,18.3,4.43,23.23,11.68,5.5,8.06,10.12,34.66,11.74,45.02,3.18,20.67,4.06,42.4,6.56,63.19l-73.25-.62,6.06-56.64c28.54,4.37,37.15-22.42,34.47-43.15-.5-4-1.25-11.43-7.43-10.05-5.12,1.19-1.31,8.31-1.12,11.24,1.56,27.35-11.18,46.02-41.03,26.6l9.24-10.87c11.24,10.68,22.36,6.06,21.42-8.8-.12-2.31-2.87-9.55-2.69-10.62.31-2.06,11.43-13.93,12.86-16.99h-.06,0ZM243.4,295.25c-7.99,1.81-1.81,18.8,1.12,23.1,2.56,3.75,12.8,11.68,17.8,11.24,3.5-.25,12.86-6.49,15.11-9.18,3.5-4.31,10.37-21.86,3.37-24.79-5.74-2.37-29.79.94-37.4-.44h0v.06h0Z"/>
    <path class="st2" d="M236.16,251.48c1.06,1.44,1.69,8.37-1.37,7.74-5.31-1.06.44-5.62,1.37-7.74Z"/>
  </g>
  <g id="skin">
    <path class="st6" d="M225.36,191.78c4.5,1.12,21.29,8.74,19.61,13.68-.12.5-5.99,7.93-6.56,7.99-.81.06-14.24-5.99-14.61-6.74-1.37-2.62,1.19-11.68,1.56-14.92h0Z"/>
    <path class="st6" d="M212.74,254.79c1.5-.31,3.87,2.06,3.81,3.06,0,.44-5.12,6.37-6.06,7.18-5.5-2-.75-9.62,2.25-10.24h0Z"/>
  </g>
  <path class="st0" d="M175.34,266.65c5.56-1.31,2.06,5.12,2,5.93-.31,5.62.69,11.61,7.43,13.68,11.12,3.43,14.8-5.81,20.29-12.3.5.81,2.93,2.87,2.93,3.5,0,.44-4.43,6.74-4.93,7.37-11.86,13.36-35.09,3.56-30.66-13.49.25-.94,1.87-4.43,2.93-4.75h0v.06h0Z"/>
  <path d="M243.4,295.25c7.62,1.37,31.66-2,37.4.44,6.99,2.87.12,20.48-3.37,24.79-2.19,2.75-11.55,8.93-15.11,9.18-5.06.37-15.24-7.49-17.8-11.24-2.93-4.31-9.12-21.29-1.12-23.1h0v-.06h0ZM259.58,303.06c-4.06.12-8.31.62-12.36.62,1.87,4.12,3.06,9.18,6.31,12.68,10.8,11.68,20.36-3.12,22.54-12.68-.31-.69-14.55-.69-16.42-.62h-.06,0Z"/>
  <path class="st8" d="M259.58,303.06c1.94,0,16.17-.06,16.42.62-2.19,9.55-11.68,24.35-22.54,12.68-3.25-3.5-4.43-8.55-6.31-12.68,4.12,0,8.31-.5,12.36-.62h.06Z"/>
  <g>
    <path class="st5" d="M238.85,353.01c.62-.25,7.93-.19,8.31.62l-.25,36.59-8.8-.19c.69-4.25-1.19-36.28.69-37.03h.06Z"/>
    <path class="st5" d="M272.32,353.01l8.8.62-.69,36.59-8.31-.19.25-37.03h-.06Z"/>
  </g>
  <g id="red">
    <path class="st9" d="M231.66,126.27s.94.62.44.81c-23.04,4.25-41.84,19.42-57.64,34.34-4.43-4.56-10.12-7.68-16.42-9.62,15.24-12.18,35.03-21.04,55.2-23.92,2.75-.37,16.61-1.87,18.48-1.62h-.06,0Z"/>
    <path class="st9" d="M255.08,130.77c9.05,0,19.48,2,27.73,5.56-30.66,2.31-54.58,21.36-72.75,42.34-7.18-6.74-16.3-11.68-26.35-13.68,17.23-18.11,44.27-34.09,71.37-34.16h0v-.06Z"/>
    <path class="st9" d="M286.18,143.51c2.87,0,5.68.75,8.55.44l.25,1-43.46,52.58c-8.93-7.99-20.17-13.55-32.66-15.36,14.55-18.48,41.03-38.4,67.38-38.65h-.06Z"/>
    <path class="st9" d="M303.29,148.01c12.3,22.67-.5,50.83-12.61,71.62-7.99-9.05-19.11-14.92-30.85-19.05l43.46-52.58h0Z"/>
    <path class="st9" d="M315.9,155.37c25.48,23.04,23.35,59.26,8.12,86.74-6.74-8.06-15.42-14.49-25.91-18.17,12.49-20.79,21.92-44.4,17.8-68.56h0Z"/>
    <path class="st9" d="M341.13,181.16c17.61,22.42,22.36,53.45,9.93,78.93-5.12-6.24-11.99-10.3-20.04-12.86,11.24-20.23,16.17-43.77,10.12-66.07h0Z"/>
    <path class="st9" d="M237.97,398.41l11.05.19c-1,4.18,1.12,12.43.44,15.99-.25,1.44-4.93,5.5-4.06,8.18l-27.23.62c1.06-3.75,7.87-3.5,11.24-4.93,10.12-4.12,8.68-11.43,8.55-20.04h0Z"/>
    <path class="st9" d="M274,398.41l11.05.19v24.54l-30.85.19c-3.62-1.75,11.43-5.06,12.18-5.31,9.49-4.06,6.87-11.8,7.68-19.61h-.06Z"/>
  </g>
  <g id="shadowRight">
    <rect x="332.74" y="430.56" width="28.35" height="10.93" rx="4.56" ry="4.56"/>
    <rect x="370.77" y="430.31" width="28.1" height="10.93" rx="4.48" ry="4.48"/>
  </g>
  <path id="shadowMain" d="M122.46,430.33h198.43c2,0,3.57,1.62,3.57,3.57v3.82c0,1.94-1.56,3.5-3.5,3.5H122.46c-2,0-3.57-1.62-3.57-3.57v-3.75c0-2,1.62-3.57,3.57-3.57Z"/>
</svg>